<?xml version="1.0" encoding="utf-8"?>
<!-- Generator: Adobe Illustrator 21.0.0, SVG Export Plug-In . SVG Version: 6.00 Build 0)  -->
<svg version="1.1" id="Layer_1" xmlns="http://www.w3.org/2000/svg" xmlns:xlink="http://www.w3.org/1999/xlink" x="0px" y="0px"
	 viewBox="0 0 512 512" style="enable-background:new 0 0 512 512;" xml:space="preserve">
<style type="text/css">
	.st0{fill:#F2F2F2;}
</style>
<path class="st0" d="M82.6,0.6c-3.9,1.4-6.6,4.8-7.1,8.9l-5.1,45.9c-4.2-3.6-10.5-3.4-14.5,0.6c-4,4-4.1,10.3-0.6,14.5L9.5,75.5
	c-4.1,0.5-7.5,3.2-8.9,7.1c-1.4,3.9-0.4,8.2,2.5,11.1l69.3,69.3c-4.2,7.5-8,15.1-11.3,23.1c-12.2,28.9-18.4,59.7-18.4,91.3
	c0,31.7,6.2,62.4,18.4,91.3c11.8,27.9,28.7,53,50.3,74.6c21.5,21.5,46.6,38.5,74.6,50.3c28.9,12.2,59.7,18.4,91.3,18.4
	c31.7,0,62.4-6.2,91.4-18.4c27.9-11.8,53-28.7,74.6-50.3c21.5-21.5,38.5-46.6,50.3-74.6c12.2-28.9,18.4-59.7,18.4-91.3
	c0-31.7-6.2-62.4-18.4-91.3c-11.8-27.9-28.7-53-50.3-74.6c-21.5-21.6-46.6-38.5-74.6-50.3c-28.9-12.2-59.7-18.4-91.4-18.4
	c-31.7,0-62.4,6.2-91.3,18.4c-7.9,3.4-15.6,7.1-23.1,11.3L93.6,3.1C90.7,0.2,86.4-0.7,82.6,0.6z M33.9,94.2l35.3-3.9
	c4.3,10.3,16.2,28.1,46.8,63.5l-25-2.5L33.9,94.2z M255.1,217.3c6.9-2.6,14.4-4,22.2-4c35.3,0,64,28.7,64,64c0,35.3-28.7,64-64,64
	c-35.3,0-64-28.7-64-64c0-7.8,1.4-15.3,4-22.2l22.8,0l29.7,29.7c4.2,4.2,10.9,4.2,15.1,0c2.1-2.1,3.1-4.8,3.1-7.5
	c0-2.7-1-5.5-3.1-7.5l-29.7-29.7L255.1,217.3z M198.9,243.9c-4.4,10.3-6.9,21.6-6.9,33.5c0,47.1,38.3,85.3,85.3,85.3
	c47.1,0,85.3-38.3,85.3-85.3c0-47.1-38.3-85.3-85.3-85.3c-11.9,0-23.2,2.4-33.5,6.9c-8.7-8.4-23.6-22.6-40.8-38.6
	c21.5-13.7,47-21.6,74.3-21.6c76.5,0,138.7,62.2,138.7,138.7c0,76.5-62.2,138.7-138.7,138.7c-76.5,0-138.7-62.2-138.7-138.7
	c0-27.3,7.9-52.8,21.6-74.3C176.3,220.3,190.5,235.2,198.9,243.9z M166.4,155.7c30,27.1,58.1,54.1,67.4,63.1l0,15l-15,0
	c-9-9.3-36-37.3-63.1-67.3c-30.1-33.4-46.8-54-56-66.8C112.4,108.9,133.1,125.6,166.4,155.7z M428.2,126.5
	c40.3,40.3,62.5,93.9,62.5,150.8c0,57-22.2,110.6-62.5,150.8c-40.3,40.3-93.9,62.5-150.9,62.5c-57,0-110.6-22.2-150.8-62.5
	C86.2,387.9,64,334.3,64,277.3c0-37.2,9.5-73,27.3-104.6l45.4,4.5c0.5,0.5,0.9,1,1.4,1.5c2.4,2.7,4.9,5.4,7.3,8
	c-18.2,26.4-28,57.7-28,90.5c0,42.7,16.6,82.9,46.9,113.1c30.2,30.2,70.4,46.9,113.1,46.9c42.8,0,82.9-16.6,113.1-46.9
	c30.2-30.2,46.9-70.4,46.9-113.1c0-42.7-16.6-82.9-46.9-113.1c-30.2-30.2-70.4-46.9-113.1-46.9c-32.8,0-64.1,9.8-90.5,28
	c-3.2-2.9-6.3-5.8-9.6-8.6l-4.5-45.4C204.3,73.5,240.1,64,277.3,64C334.3,64,387.9,86.2,428.2,126.5z M151.3,90.9l2.5,25.1
	c-14.6-12.6-27.1-22.8-37.3-30.4c-9.1-6.8-16.3-11.6-22.1-14.5c-0.9-0.5-2.4-1.2-4.1-1.9l3.9-35.2L151.3,90.9z"/>
</svg>
