<?xml version="1.0" encoding="utf-8"?>
<!-- Generator: Adobe Illustrator 21.0.0, SVG Export Plug-In . SVG Version: 6.00 Build 0)  -->
<svg version="1.1" id="Layer_1" xmlns="http://www.w3.org/2000/svg" xmlns:xlink="http://www.w3.org/1999/xlink" x="0px" y="0px"
	 viewBox="0 0 512 512" style="enable-background:new 0 0 512 512;" xml:space="preserve">
<style type="text/css">
	.st0{fill:#F2F2F2;}
</style>
<g>
	<path class="st0" d="M487.3,90.3c-51.4-26.8-106.8-39.8-166-39.1C262,51.8,208,66.8,159.4,96.2c-48.6,29.3-87.1,70-115.3,122.1
		C15.8,270.4,1.5,325.4,1.2,383.4c0.2,8.7,2.2,16.2,6,22.5c3.8,6.3,9.5,11.6,17.1,15.8c51.4,26.8,106.8,39.8,166,39.1
		c59.2-0.7,113.2-15.7,161.8-45c48.7-29.3,87.1-70,115.4-122c28.3-52,42.6-107.1,42.8-165.2c-0.2-8.7-2.2-16.2-6-22.5
		C500.6,99.8,494.9,94.5,487.3,90.3L487.3,90.3z M138.9,196.9c6.6-26.5,21.4-46.8,44.5-60.7c3.7-2.2,7.6-2.8,11.8-1.8
		c4.1,1,7.3,3.4,9.6,7.1c2.2,3.7,2.8,7.6,1.8,11.8c-1,4.2-3.4,7.3-7.1,9.6c-15.9,9.6-26.1,23.4-30.6,41.5c-4.5,18.1-1.9,35.1,7.7,51
		c2.2,3.7,2.8,7.6,1.8,11.8c-1,4.2-3.4,7.3-7.1,9.6c-3.7,2.2-7.6,2.8-11.8,1.8c-4.1-1-7.3-3.4-9.6-7.1
		C136.1,248.2,132.4,223.4,138.9,196.9L138.9,196.9z M430.9,273.9c-23.5,44.8-57,80.3-100.2,106.4c-43.3,26.1-90.2,39.1-140.9,39
		c-50.6-0.1-99.7-11.7-147.1-34.8C44.5,323.9,60,270,89.3,222.8c0.3,26,7.2,50.3,20.7,72.6c20.6,34.2,50.5,56.1,89.4,65.8
		c39,9.7,75.6,4.2,109.8-16.5c34.2-20.6,56.2-50.4,65.8-89.4s4.2-75.6-16.4-109.8c-13.5-22.4-31.7-39.8-54.6-52.2
		c55.4-3.9,110.3,7.5,164.8,34.2C467.1,180.3,454.5,229.1,430.9,273.9L430.9,273.9z M430.9,273.9"/>
</g>
</svg>
