<svg id="svg" version="1.1" xmlns="http://www.w3.org/2000/svg" xmlns:xlink="http://www.w3.org/1999/xlink" width="400" height="129.0435352597367" viewBox="0, 0, 400,129.0435352597367"><g id="svgg"><path id="path0" d="M60.333 0.740 C 59.921 0.855,58.608 1.419,57.417 1.993 C 56.225 2.566,55.006 3.141,54.708 3.270 C 54.410 3.399,54.167 3.574,54.167 3.659 C 54.167 3.743,54.035 3.806,53.875 3.798 C 53.614 3.786,49.877 5.543,45.750 7.618 C 44.925 8.033,42.825 9.046,41.083 9.869 C 33.503 13.452,32.523 13.985,32.061 14.773 C 31.324 16.030,31.869 16.895,34.167 18.120 C 36.109 19.155,41.469 22.072,45.667 24.378 C 46.171 24.655,47.071 25.145,47.667 25.467 C 48.262 25.790,48.898 26.154,49.079 26.277 C 49.260 26.399,49.535 26.500,49.690 26.500 C 49.845 26.500,49.997 26.562,50.028 26.637 C 50.058 26.712,51.133 27.339,52.417 28.029 C 53.700 28.719,55.163 29.512,55.667 29.791 C 57.408 30.754,62.258 33.382,64.583 34.622 C 65.867 35.307,67.563 36.234,68.353 36.683 C 69.143 37.133,69.864 37.500,69.954 37.500 C 70.271 37.500,71.668 38.686,71.916 39.166 C 73.441 42.114,66.209 44.605,61.837 42.639 C 60.921 42.227,55.333 39.234,53.750 38.308 C 53.475 38.148,52.125 37.412,50.750 36.674 C 49.375 35.936,47.875 35.120,47.417 34.861 C 46.958 34.601,45.683 33.917,44.583 33.340 C 43.483 32.763,42.471 32.198,42.333 32.084 C 42.196 31.971,41.708 31.690,41.250 31.460 C 40.792 31.231,39.629 30.609,38.667 30.079 C 36.624 28.954,35.642 28.420,32.917 26.953 C 31.817 26.361,30.579 25.690,30.167 25.461 C 27.285 23.867,25.807 23.064,25.083 22.702 C 24.625 22.472,24.063 22.159,23.833 22.007 C 22.952 21.419,21.977 21.250,19.500 21.255 L 17.083 21.261 15.250 22.152 C 14.242 22.642,12.656 23.404,11.725 23.846 C 8.338 25.453,7.937 27.153,10.603 28.601 C 10.959 28.795,12.075 29.401,13.083 29.949 C 14.092 30.497,15.514 31.268,16.245 31.663 C 16.975 32.057,17.838 32.530,18.162 32.712 C 18.485 32.895,19.462 33.419,20.333 33.876 C 21.204 34.333,22.292 34.917,22.750 35.172 C 24.167 35.963,25.203 36.528,26.417 37.172 C 27.058 37.512,28.296 38.186,29.167 38.669 C 31.521 39.975,32.726 40.625,34.667 41.635 C 35.629 42.136,36.454 42.592,36.500 42.648 C 36.546 42.704,37.071 43.002,37.667 43.311 C 39.194 44.101,41.153 45.151,43.000 46.169 C 43.871 46.649,45.033 47.283,45.583 47.579 C 47.665 48.697,53.284 51.734,54.083 52.172 C 61.210 56.081,61.444 56.173,64.156 56.161 C 65.974 56.152,66.932 55.865,69.833 54.459 C 72.269 53.278,73.733 52.582,76.667 51.210 C 77.354 50.888,78.929 50.140,80.167 49.547 C 81.404 48.954,82.792 48.295,83.250 48.083 C 83.708 47.870,85.133 47.192,86.417 46.576 C 87.700 45.960,89.763 44.974,91.000 44.385 C 96.089 41.962,96.333 41.794,96.333 40.719 C 96.333 39.574,95.269 38.572,92.845 37.432 C 92.426 37.235,91.746 36.881,91.333 36.645 C 90.921 36.409,89.571 35.668,88.333 34.999 C 87.096 34.329,85.708 33.579,85.250 33.331 C 84.792 33.083,83.667 32.482,82.750 31.995 C 81.833 31.508,80.874 30.966,80.619 30.789 C 80.364 30.613,80.052 30.508,79.926 30.557 C 79.801 30.605,79.568 30.500,79.408 30.324 C 79.249 30.148,78.548 29.690,77.851 29.307 C 76.655 28.650,76.016 28.306,73.422 26.927 C 72.830 26.612,72.023 26.171,71.631 25.947 C 70.912 25.538,69.623 24.832,68.083 24.004 C 67.625 23.757,66.575 23.192,65.750 22.749 C 64.925 22.305,63.890 21.730,63.451 21.471 C 63.012 21.212,62.595 21.000,62.525 21.000 C 62.456 21.000,62.051 20.780,61.627 20.510 C 61.202 20.241,60.105 19.638,59.188 19.169 C 57.195 18.151,56.500 17.461,56.500 16.500 C 56.500 15.329,57.203 14.782,60.792 13.163 C 61.456 12.863,62.000 12.555,62.000 12.479 C 62.000 12.404,62.223 12.386,62.495 12.441 C 62.767 12.495,63.123 12.484,63.287 12.416 C 63.980 12.128,67.102 12.469,68.101 12.942 C 69.117 13.424,73.002 15.496,73.833 16.000 C 74.246 16.250,75.558 16.961,76.750 17.581 C 77.942 18.200,78.992 18.764,79.083 18.834 C 79.175 18.903,79.887 19.296,80.667 19.706 C 81.446 20.116,82.571 20.718,83.167 21.044 C 83.762 21.370,85.037 22.065,86.000 22.589 C 86.962 23.113,88.050 23.708,88.417 23.912 C 89.480 24.502,94.816 27.404,98.083 29.168 C 99.733 30.059,102.208 31.407,103.583 32.164 C 108.356 34.791,110.829 34.959,115.031 32.941 C 119.256 30.912,118.947 29.610,113.583 26.855 C 112.850 26.478,111.650 25.834,110.917 25.424 C 109.473 24.617,108.858 24.279,103.250 21.216 C 102.242 20.666,101.079 20.028,100.667 19.799 C 100.254 19.570,99.242 19.023,98.417 18.584 C 97.592 18.145,96.279 17.427,95.500 16.989 C 94.721 16.551,92.846 15.525,91.333 14.710 C 88.547 13.207,87.322 12.531,86.417 11.997 C 86.142 11.835,84.417 10.893,82.583 9.903 C 78.687 7.801,78.087 7.475,76.083 6.373 C 73.375 4.885,72.930 4.642,71.667 3.955 C 70.979 3.582,70.192 3.152,69.917 2.999 C 65.429 0.505,63.118 -0.039,60.333 0.740 " stroke="none" fill="#eb4c1c" fill-rule="evenodd"></path><path id="path1" d="M118.750 36.972 C 118.292 37.144,116.979 37.736,115.833 38.289 C 114.688 38.842,111.612 40.308,109.000 41.546 C 104.442 43.706,102.518 44.628,96.529 47.519 C 95.032 48.242,93.780 48.833,93.747 48.833 C 93.714 48.833,92.213 49.546,90.412 50.417 C 88.611 51.288,87.106 52.000,87.067 52.000 C 87.004 52.000,83.665 53.596,79.583 55.577 C 77.241 56.714,74.514 58.002,70.750 59.751 C 68.633 60.734,67.015 62.582,66.331 64.797 C 65.797 66.524,65.815 99.944,66.350 101.082 C 67.145 102.772,68.522 102.915,71.257 101.592 C 72.170 101.150,73.629 100.451,74.500 100.038 C 75.371 99.625,77.461 98.623,79.145 97.811 C 80.829 96.998,82.231 96.333,82.261 96.333 C 82.290 96.333,83.687 95.668,85.365 94.856 C 87.044 94.043,89.242 92.984,90.250 92.503 C 91.258 92.022,93.171 91.102,94.500 90.460 C 95.829 89.818,97.394 89.073,97.978 88.806 C 98.985 88.344,101.265 87.249,105.750 85.074 C 109.962 83.030,111.333 83.863,111.333 88.465 C 111.333 93.206,110.059 95.074,105.333 97.256 C 103.821 97.954,102.246 98.701,101.833 98.915 C 101.421 99.130,100.296 99.679,99.333 100.135 C 98.371 100.592,96.400 101.538,94.953 102.237 C 93.506 102.937,91.856 103.724,91.286 103.986 C 90.058 104.552,87.018 106.003,83.667 107.622 C 82.337 108.265,80.537 109.129,79.667 109.543 C 69.116 114.560,69.127 114.555,68.205 115.589 C 66.336 117.686,65.955 119.092,66.029 123.619 C 66.114 128.766,67.201 129.798,70.750 128.102 C 74.880 126.127,76.294 125.424,76.677 125.155 C 76.912 124.990,77.324 124.802,77.593 124.736 C 77.863 124.670,79.658 123.850,81.583 122.912 C 83.508 121.975,85.683 120.927,86.417 120.583 C 87.150 120.239,88.763 119.469,90.000 118.872 C 91.237 118.275,92.850 117.506,93.583 117.164 C 94.317 116.821,96.342 115.848,98.083 115.000 C 99.825 114.152,101.925 113.142,102.750 112.753 C 106.797 110.850,110.434 109.107,110.583 109.000 C 110.675 108.934,112.550 108.033,114.750 106.998 C 116.950 105.963,118.900 105.014,119.083 104.888 C 120.372 104.007,121.820 102.028,122.324 100.460 C 122.515 99.868,122.702 65.909,122.514 66.097 C 122.477 66.134,122.309 65.940,122.141 65.665 C 121.348 64.361,120.297 64.231,118.128 65.166 C 117.278 65.533,116.535 65.833,116.476 65.833 C 116.381 65.833,115.015 66.472,110.500 68.626 C 109.721 68.998,107.733 69.938,106.083 70.716 C 103.440 71.962,100.173 73.508,94.833 76.041 C 93.962 76.454,91.938 77.410,90.333 78.166 C 88.729 78.922,86.367 80.047,85.083 80.666 C 79.796 83.218,79.306 83.310,77.992 82.006 C 77.194 81.213,76.848 76.654,77.405 74.267 C 77.982 71.792,79.539 69.802,81.703 68.774 C 82.371 68.457,84.031 67.666,85.393 67.015 C 86.755 66.365,87.895 65.833,87.925 65.833 C 87.956 65.833,89.279 65.206,90.865 64.440 C 92.452 63.673,95.025 62.444,96.583 61.709 C 98.142 60.974,100.204 60.000,101.167 59.544 C 102.129 59.087,103.442 58.467,104.083 58.166 C 104.725 57.864,106.004 57.259,106.924 56.821 C 107.845 56.384,110.831 54.968,113.560 53.675 C 120.143 50.556,120.630 50.207,121.842 47.750 L 122.417 46.583 122.464 42.583 C 122.529 37.039,121.744 35.853,118.750 36.972 " stroke="none" fill="#64bb64" fill-rule="evenodd"></path><path id="path2" d="M6.333 32.784 C 5.940 32.928,5.327 33.537,5.026 34.083 C 4.772 34.543,4.750 37.010,4.750 65.000 L 4.750 95.417 5.136 96.583 C 5.758 98.462,7.016 100.195,8.402 101.081 C 9.241 101.618,9.844 101.951,13.083 103.666 C 14.000 104.152,15.011 104.726,15.330 104.941 C 15.650 105.157,15.970 105.333,16.043 105.333 C 16.115 105.333,16.754 105.661,17.462 106.062 C 19.210 107.051,23.225 109.257,25.210 110.320 C 26.105 110.800,26.795 111.260,26.743 111.344 C 26.692 111.428,26.765 111.452,26.907 111.397 C 27.048 111.343,27.446 111.467,27.790 111.672 C 28.404 112.038,28.808 112.264,31.000 113.464 C 31.596 113.791,32.346 114.204,32.667 114.384 C 32.987 114.563,33.775 114.991,34.417 115.335 C 36.603 116.507,39.247 117.955,41.071 118.978 C 42.072 119.540,42.920 120.000,42.954 120.000 C 42.988 120.000,43.605 120.340,44.325 120.755 C 45.045 121.171,45.698 121.492,45.776 121.469 C 45.853 121.446,46.329 121.696,46.833 122.023 C 47.337 122.351,48.500 123.033,49.417 123.537 C 50.333 124.042,52.171 125.055,53.500 125.789 C 59.267 128.972,59.808 129.141,60.948 128.111 C 63.072 126.192,62.271 118.294,59.655 115.356 C 58.812 114.409,58.513 114.197,56.509 113.125 C 55.817 112.754,54.200 111.874,52.917 111.168 C 48.886 108.952,47.593 108.254,47.274 108.124 C 47.104 108.055,46.767 107.860,46.524 107.692 C 46.282 107.524,45.258 106.952,44.250 106.422 C 43.242 105.892,41.779 105.103,41.000 104.669 C 40.221 104.235,38.233 103.147,36.583 102.252 C 34.933 101.357,33.222 100.409,32.781 100.145 C 32.339 99.882,31.936 99.667,31.885 99.667 C 31.834 99.667,30.808 99.115,29.605 98.441 C 28.401 97.766,26.853 96.918,26.164 96.555 C 21.084 93.883,19.778 92.961,18.742 91.321 C 16.779 88.212,16.799 82.555,18.775 81.729 C 20.015 81.211,20.326 81.337,27.167 85.139 C 27.579 85.368,28.217 85.703,28.583 85.883 C 28.950 86.062,29.438 86.339,29.667 86.497 C 29.896 86.656,30.796 87.159,31.667 87.617 C 33.023 88.330,36.978 90.479,39.500 91.874 C 40.695 92.535,43.991 94.333,45.083 94.919 C 45.633 95.215,46.466 95.683,46.934 95.959 C 49.018 97.192,50.495 96.928,51.255 95.188 C 51.595 94.408,51.603 88.261,51.265 87.167 C 50.589 84.981,48.480 82.000,47.609 82.000 C 47.567 82.000,47.056 81.730,46.474 81.401 C 45.893 81.071,44.910 80.539,44.292 80.218 C 43.638 79.879,43.212 79.561,43.276 79.458 C 43.339 79.355,43.306 79.331,43.194 79.400 C 43.089 79.464,42.422 79.197,41.710 78.806 C 40.999 78.415,39.799 77.755,39.045 77.339 C 38.290 76.923,36.510 75.956,35.089 75.189 C 33.592 74.381,32.549 73.722,32.611 73.621 C 32.672 73.523,32.638 73.498,32.532 73.564 C 32.341 73.682,31.917 73.469,27.583 71.081 C 27.125 70.829,26.262 70.358,25.667 70.035 C 20.668 67.326,20.484 67.203,19.242 65.749 C 17.012 63.139,16.471 55.960,18.371 54.204 C 19.044 53.582,20.230 53.536,21.250 54.093 C 22.927 55.009,23.781 55.477,25.250 56.286 C 26.075 56.740,27.387 57.453,28.167 57.869 C 28.946 58.286,30.296 59.023,31.167 59.507 C 33.058 60.558,33.487 60.793,36.083 62.200 C 37.183 62.797,38.383 63.456,38.750 63.665 C 39.117 63.875,40.429 64.590,41.667 65.254 C 45.650 67.391,46.491 67.880,46.408 68.013 C 46.364 68.085,46.416 68.198,46.523 68.264 C 46.645 68.340,46.674 68.313,46.599 68.192 C 46.389 67.853,46.728 67.983,48.087 68.764 C 48.818 69.184,49.754 69.699,50.167 69.909 C 51.049 70.358,54.452 72.206,56.000 73.077 C 60.706 75.724,61.864 75.094,61.974 69.833 C 62.091 64.190,60.777 61.266,57.333 59.509 C 56.065 58.861,52.357 56.866,51.750 56.503 C 51.475 56.339,50.538 55.827,49.667 55.365 C 45.696 53.260,44.420 52.517,44.462 52.336 C 44.488 52.229,44.438 52.185,44.353 52.238 C 44.117 52.384,43.653 52.157,43.777 51.957 C 43.840 51.854,43.805 51.831,43.691 51.902 C 43.445 52.054,41.487 50.989,41.619 50.775 C 41.674 50.686,41.630 50.669,41.521 50.737 C 41.412 50.805,40.753 50.544,40.037 50.150 C 39.329 49.761,38.375 49.243,37.917 49.000 C 37.139 48.588,34.385 47.090,32.083 45.828 C 31.533 45.526,30.708 45.078,30.250 44.833 C 29.099 44.217,25.445 42.236,24.333 41.625 C 23.399 41.111,21.774 40.236,19.456 39.001 C 18.678 38.586,18.206 38.238,18.273 38.129 C 18.339 38.023,18.308 37.996,18.198 38.064 C 18.004 38.184,17.723 38.043,12.250 35.079 C 7.463 32.487,7.309 32.428,6.333 32.784 " stroke="none" fill="#1c549b" fill-rule="evenodd"></path><path id="path3" d="M61.167 0.330 C 60.663 0.393,60.100 0.505,59.917 0.579 C 59.330 0.816,57.135 1.837,55.417 2.672 C 54.500 3.118,52.700 3.981,51.417 4.591 C 50.133 5.201,47.508 6.469,45.583 7.409 C 43.658 8.349,41.821 9.244,41.500 9.397 C 41.179 9.550,40.804 9.744,40.667 9.826 C 40.529 9.909,40.042 10.142,39.583 10.345 C 32.354 13.543,30.834 14.728,31.733 16.467 C 32.159 17.290,32.792 17.710,36.583 19.682 C 37.317 20.063,38.104 20.505,38.333 20.663 C 38.563 20.822,39.462 21.315,40.333 21.760 C 41.204 22.204,42.329 22.804,42.833 23.093 C 44.031 23.778,46.151 24.924,47.457 25.591 C 48.029 25.884,48.591 26.201,48.707 26.297 C 48.822 26.393,49.554 26.790,50.333 27.180 C 51.112 27.570,52.313 28.203,53.000 28.587 C 54.619 29.490,55.267 29.846,58.083 31.378 C 59.367 32.076,60.829 32.873,61.333 33.150 C 61.837 33.427,63.038 34.071,64.000 34.581 C 68.111 36.759,70.614 38.182,71.207 38.677 C 71.939 39.288,72.007 40.645,71.333 41.189 C 70.276 42.043,67.952 42.966,66.583 43.075 C 63.777 43.298,62.678 42.939,57.583 40.133 C 53.475 37.870,52.501 37.338,51.250 36.672 C 50.517 36.281,49.348 35.633,48.652 35.231 C 47.956 34.829,47.341 34.500,47.285 34.500 C 47.228 34.500,46.530 34.125,45.734 33.667 C 44.937 33.208,44.184 32.833,44.059 32.833 C 43.935 32.833,43.833 32.767,43.833 32.687 C 43.833 32.606,43.590 32.444,43.292 32.327 C 42.994 32.209,42.511 31.938,42.219 31.723 C 41.928 31.509,41.627 31.333,41.552 31.333 C 41.476 31.333,40.702 30.934,39.832 30.445 C 37.708 29.253,36.316 28.490,33.833 27.156 C 32.688 26.540,31.037 25.646,30.167 25.168 C 29.296 24.690,28.021 23.996,27.333 23.625 C 26.646 23.254,25.506 22.631,24.799 22.241 C 22.839 21.157,21.107 20.742,19.142 20.884 C 17.182 21.025,16.509 21.242,13.617 22.660 C 12.114 23.397,10.827 24.000,10.756 24.000 C 10.410 24.000,9.004 25.239,8.754 25.765 C 8.239 26.851,8.971 27.974,10.857 28.985 C 11.440 29.298,12.142 29.687,12.417 29.851 C 12.692 30.014,13.592 30.499,14.417 30.928 C 15.242 31.358,15.997 31.773,16.095 31.850 C 16.194 31.928,16.869 32.301,17.595 32.679 C 18.322 33.057,19.142 33.504,19.417 33.671 C 19.692 33.838,20.554 34.303,21.333 34.704 C 22.561 35.337,26.405 37.420,29.333 39.040 C 30.529 39.701,32.363 40.681,34.333 41.711 C 35.204 42.166,36.029 42.635,36.167 42.754 C 36.304 42.873,36.940 43.208,37.579 43.500 C 38.218 43.792,38.930 44.163,39.162 44.326 C 39.394 44.488,40.371 45.034,41.333 45.540 C 42.296 46.045,43.383 46.632,43.750 46.845 C 44.527 47.295,46.036 48.106,47.917 49.083 C 48.650 49.464,49.572 49.980,49.966 50.229 C 50.360 50.477,50.848 50.744,51.050 50.821 C 51.252 50.898,52.279 51.439,53.333 52.023 C 54.387 52.607,55.475 53.194,55.750 53.327 C 56.025 53.460,56.362 53.659,56.500 53.769 C 58.446 55.323,61.763 56.383,64.447 56.307 L 66.583 56.246 69.083 55.090 C 70.458 54.454,71.702 53.836,71.846 53.717 C 71.991 53.598,72.165 53.500,72.232 53.500 C 72.358 53.500,73.461 53.000,76.083 51.755 C 76.908 51.363,78.371 50.669,79.333 50.213 C 82.632 48.649,83.920 48.035,86.167 46.957 C 87.404 46.364,88.942 45.640,89.583 45.348 C 90.688 44.846,91.044 44.669,92.125 44.086 C 92.630 43.813,94.469 43.000,94.580 43.000 C 94.853 43.000,96.219 41.882,96.419 41.495 C 97.190 40.005,96.577 39.215,93.250 37.411 C 92.425 36.963,91.112 36.242,90.333 35.808 C 89.554 35.374,88.279 34.683,87.500 34.274 C 86.219 33.600,85.222 33.060,81.706 31.135 C 79.736 30.057,79.620 30.000,79.391 30.000 C 79.268 30.000,79.167 29.938,79.167 29.861 C 79.167 29.785,78.960 29.619,78.708 29.491 C 78.456 29.364,77.575 28.887,76.750 28.433 C 75.925 27.979,74.725 27.330,74.083 26.992 C 73.442 26.654,72.204 25.984,71.333 25.504 C 69.655 24.578,67.473 23.390,64.435 21.750 C 61.247 20.027,60.170 19.434,59.217 18.875 C 58.709 18.577,58.204 18.333,58.096 18.333 C 57.024 18.333,56.435 16.107,57.292 15.294 C 57.808 14.803,61.501 13.000,61.988 13.000 C 62.163 13.000,62.333 12.919,62.366 12.820 C 62.571 12.205,67.662 12.794,68.893 13.576 C 69.225 13.787,70.925 14.715,74.583 16.684 C 75.408 17.128,76.745 17.850,77.554 18.287 C 78.362 18.725,79.603 19.383,80.311 19.750 C 81.019 20.117,81.973 20.642,82.431 20.917 C 82.888 21.192,83.785 21.679,84.423 22.000 C 85.061 22.321,85.621 22.621,85.667 22.667 C 85.771 22.771,86.467 23.158,88.029 23.980 C 88.701 24.333,89.962 25.017,90.833 25.499 C 91.704 25.982,93.467 26.938,94.750 27.623 C 96.033 28.309,97.496 29.096,98.000 29.372 C 98.504 29.649,99.554 30.217,100.333 30.635 C 101.112 31.053,101.975 31.529,102.250 31.694 C 102.525 31.858,103.350 32.303,104.083 32.681 C 104.817 33.060,105.529 33.461,105.667 33.572 C 107.673 35.194,112.612 34.679,116.667 32.425 C 118.309 31.513,118.405 28.915,116.815 28.411 C 116.643 28.356,116.408 28.223,116.293 28.114 C 116.178 28.006,115.483 27.602,114.750 27.217 C 114.017 26.833,112.479 25.992,111.333 25.350 C 110.188 24.707,108.654 23.875,107.925 23.500 C 107.196 23.125,106.520 22.752,106.423 22.672 C 106.325 22.591,105.572 22.172,104.748 21.742 C 103.924 21.311,102.837 20.716,102.333 20.420 C 101.829 20.123,101.192 19.769,100.917 19.632 C 99.935 19.144,95.470 16.720,92.250 14.926 C 91.883 14.722,90.908 14.194,90.083 13.753 C 89.258 13.311,88.498 12.884,88.393 12.803 C 88.288 12.722,87.763 12.429,87.226 12.152 C 86.689 11.875,85.950 11.483,85.583 11.280 C 84.453 10.654,82.315 9.509,80.917 8.781 C 80.183 8.399,79.546 8.041,79.500 7.986 C 79.454 7.931,78.592 7.455,77.583 6.926 C 76.575 6.398,75.669 5.900,75.570 5.820 C 75.472 5.739,74.909 5.422,74.320 5.113 C 72.532 4.177,70.667 3.163,69.939 2.730 C 66.233 0.525,64.158 -0.043,61.167 0.330 M65.514 0.848 C 66.430 1.147,67.702 1.769,69.917 2.999 C 70.192 3.152,70.979 3.582,71.667 3.955 C 72.930 4.642,73.375 4.885,76.083 6.373 C 78.087 7.475,78.687 7.801,82.583 9.903 C 84.417 10.893,86.142 11.835,86.417 11.997 C 87.322 12.531,88.547 13.207,91.333 14.710 C 92.846 15.525,94.721 16.551,95.500 16.989 C 96.279 17.427,97.592 18.145,98.417 18.584 C 99.242 19.023,100.254 19.570,100.667 19.799 C 101.079 20.028,102.242 20.666,103.250 21.216 C 108.858 24.279,109.473 24.617,110.917 25.424 C 111.650 25.834,112.850 26.478,113.583 26.855 C 118.947 29.610,119.256 30.912,115.031 32.941 C 110.829 34.959,108.356 34.791,103.583 32.164 C 102.208 31.407,99.733 30.059,98.083 29.168 C 94.816 27.404,89.480 24.502,88.417 23.912 C 88.050 23.708,86.962 23.113,86.000 22.589 C 85.037 22.065,83.762 21.370,83.167 21.044 C 82.571 20.718,81.446 20.116,80.667 19.706 C 79.887 19.296,79.175 18.903,79.083 18.834 C 78.992 18.764,77.942 18.200,76.750 17.581 C 75.558 16.961,74.246 16.250,73.833 16.000 C 73.002 15.496,69.117 13.424,68.101 12.942 C 67.102 12.469,63.980 12.128,63.287 12.416 C 63.123 12.484,62.767 12.495,62.495 12.441 C 62.223 12.386,62.000 12.404,62.000 12.479 C 62.000 12.555,61.456 12.863,60.792 13.163 C 57.203 14.782,56.500 15.329,56.500 16.500 C 56.500 17.461,57.195 18.151,59.188 19.169 C 60.105 19.638,61.202 20.241,61.627 20.510 C 62.051 20.780,62.456 21.000,62.525 21.000 C 62.595 21.000,63.012 21.212,63.451 21.471 C 63.890 21.730,64.925 22.305,65.750 22.749 C 66.575 23.192,67.625 23.757,68.083 24.004 C 69.623 24.832,70.912 25.538,71.631 25.947 C 72.023 26.171,72.830 26.612,73.422 26.927 C 76.016 28.306,76.655 28.650,77.851 29.307 C 78.548 29.690,79.249 30.148,79.408 30.324 C 79.568 30.500,79.801 30.605,79.926 30.557 C 80.052 30.508,80.364 30.613,80.619 30.789 C 80.874 30.966,81.833 31.508,82.750 31.995 C 83.667 32.482,84.792 33.083,85.250 33.331 C 85.708 33.579,87.096 34.329,88.333 34.999 C 89.571 35.668,90.921 36.409,91.333 36.645 C 91.746 36.881,92.426 37.235,92.845 37.432 C 95.269 38.572,96.333 39.574,96.333 40.719 C 96.333 41.794,96.089 41.962,91.000 44.385 C 89.763 44.974,87.700 45.960,86.417 46.576 C 85.133 47.192,83.708 47.870,83.250 48.083 C 82.792 48.295,81.404 48.954,80.167 49.547 C 78.929 50.140,77.354 50.888,76.667 51.210 C 73.733 52.582,72.269 53.278,69.833 54.459 C 66.932 55.865,65.974 56.152,64.156 56.161 C 61.444 56.173,61.210 56.081,54.083 52.172 C 53.284 51.734,47.665 48.697,45.583 47.579 C 45.033 47.283,43.871 46.649,43.000 46.169 C 41.153 45.151,39.194 44.101,37.667 43.311 C 37.071 43.002,36.546 42.704,36.500 42.648 C 36.454 42.592,35.629 42.136,34.667 41.635 C 32.726 40.625,31.521 39.975,29.167 38.669 C 28.296 38.186,27.058 37.512,26.417 37.172 C 25.203 36.528,24.167 35.963,22.750 35.172 C 22.292 34.917,21.204 34.333,20.333 33.876 C 19.462 33.419,18.485 32.895,18.162 32.712 C 17.838 32.530,16.975 32.057,16.245 31.663 C 15.514 31.268,14.092 30.497,13.083 29.949 C 12.075 29.401,10.959 28.795,10.603 28.601 C 7.937 27.153,8.338 25.453,11.725 23.846 C 12.656 23.404,14.242 22.642,15.250 22.152 L 17.083 21.261 19.500 21.255 C 21.977 21.250,22.952 21.419,23.833 22.007 C 24.063 22.159,24.625 22.472,25.083 22.702 C 25.807 23.064,27.285 23.867,30.167 25.461 C 30.579 25.690,31.817 26.361,32.917 26.953 C 35.642 28.420,36.624 28.954,38.667 30.079 C 39.629 30.609,40.792 31.231,41.250 31.460 C 41.708 31.690,42.196 31.971,42.333 32.084 C 42.471 32.198,43.483 32.763,44.583 33.340 C 45.683 33.917,46.958 34.601,47.417 34.861 C 47.875 35.120,49.375 35.936,50.750 36.674 C 52.125 37.412,53.475 38.148,53.750 38.308 C 55.333 39.234,60.921 42.227,61.837 42.639 C 66.209 44.605,73.441 42.114,71.916 39.166 C 71.668 38.686,70.271 37.500,69.954 37.500 C 69.864 37.500,69.143 37.133,68.353 36.683 C 67.563 36.234,65.867 35.307,64.583 34.622 C 62.258 33.382,57.408 30.754,55.667 29.791 C 55.163 29.512,53.700 28.719,52.417 28.029 C 51.133 27.339,50.058 26.712,50.028 26.637 C 49.997 26.562,49.845 26.500,49.690 26.500 C 49.535 26.500,49.260 26.399,49.079 26.277 C 48.898 26.154,48.262 25.790,47.667 25.467 C 47.071 25.145,46.171 24.655,45.667 24.378 C 41.469 22.072,36.109 19.155,34.167 18.120 C 31.869 16.895,31.324 16.030,32.061 14.773 C 32.523 13.985,33.503 13.452,41.083 9.869 C 42.825 9.046,44.925 8.033,45.750 7.618 C 49.877 5.543,53.614 3.786,53.875 3.798 C 54.035 3.806,54.167 3.743,54.167 3.659 C 54.167 3.574,54.410 3.399,54.708 3.270 C 55.006 3.141,56.225 2.566,57.417 1.993 C 60.753 0.386,63.085 0.057,65.514 0.848 M5.794 32.761 C 5.295 33.032,4.857 33.758,4.644 34.667 C 4.446 35.510,4.454 94.552,4.652 95.592 C 5.195 98.449,6.746 100.558,9.294 101.905 C 10.095 102.328,10.862 102.749,11.000 102.841 C 11.137 102.932,12.037 103.428,13.000 103.942 C 15.801 105.439,16.658 105.903,18.250 106.783 C 19.075 107.238,20.275 107.896,20.917 108.244 C 22.672 109.197,23.834 109.833,24.667 110.299 C 25.872 110.972,27.129 111.647,29.000 112.627 C 29.962 113.130,30.938 113.670,31.167 113.826 C 31.396 113.982,32.296 114.487,33.167 114.948 C 35.726 116.303,37.325 117.173,38.826 118.029 C 39.602 118.472,40.292 118.833,40.361 118.833 C 40.429 118.833,40.767 119.025,41.112 119.259 C 41.457 119.493,42.229 119.916,42.828 120.200 C 43.427 120.484,44.230 120.930,44.613 121.192 C 44.997 121.453,45.388 121.667,45.483 121.667 C 45.670 121.667,46.660 122.197,47.333 122.657 C 47.714 122.918,48.868 123.552,51.833 125.129 C 52.429 125.446,53.254 125.895,53.667 126.127 C 59.592 129.458,60.376 129.612,61.667 127.701 C 62.229 126.868,62.399 120.452,61.899 118.945 C 60.834 115.736,59.637 114.465,55.777 112.444 C 55.048 112.062,54.331 111.675,54.184 111.583 C 54.037 111.492,53.017 110.935,51.917 110.347 C 50.817 109.759,49.654 109.127,49.333 108.941 C 49.012 108.756,48.375 108.403,47.917 108.157 C 47.458 107.910,46.296 107.277,45.333 106.749 C 44.371 106.221,43.021 105.492,42.333 105.129 C 41.646 104.766,41.007 104.406,40.914 104.329 C 40.820 104.253,40.108 103.860,39.330 103.456 C 37.879 102.702,36.426 101.917,35.250 101.251 C 34.625 100.897,33.942 100.522,31.637 99.266 C 31.116 98.982,29.954 98.348,29.053 97.856 C 28.153 97.364,26.779 96.626,26.000 96.216 C 25.221 95.806,24.508 95.411,24.417 95.338 C 24.325 95.264,23.650 94.896,22.917 94.518 C 19.190 92.600,17.695 90.215,17.582 86.006 C 17.480 82.210,18.877 80.862,21.450 82.272 C 21.890 82.514,22.738 82.976,23.333 83.299 C 23.929 83.622,24.642 84.019,24.917 84.180 C 25.192 84.342,25.904 84.733,26.500 85.050 C 27.618 85.644,27.778 85.731,31.000 87.501 C 32.054 88.080,33.442 88.830,34.083 89.169 C 34.725 89.507,36.600 90.533,38.250 91.448 C 42.683 93.907,43.118 94.145,44.667 94.962 C 45.446 95.373,46.196 95.797,46.333 95.904 C 48.202 97.364,50.579 97.207,51.417 95.569 C 51.842 94.737,51.924 88.030,51.522 87.000 C 50.478 84.329,49.025 82.412,47.516 81.714 C 47.187 81.562,46.379 81.114,45.721 80.719 C 45.064 80.325,44.321 79.924,44.071 79.829 C 43.820 79.733,43.196 79.405,42.683 79.099 C 42.170 78.792,40.662 77.947,39.333 77.220 C 36.163 75.487,35.850 75.319,34.083 74.403 C 33.258 73.975,32.546 73.574,32.500 73.512 C 32.454 73.449,31.704 73.036,30.833 72.594 C 29.962 72.151,29.137 71.697,29.000 71.584 C 28.863 71.471,28.113 71.055,27.333 70.660 C 26.554 70.265,25.392 69.638,24.750 69.265 C 24.108 68.893,23.306 68.462,22.967 68.306 C 21.439 67.606,20.163 66.599,19.306 65.417 C 17.294 62.642,16.784 56.204,18.438 54.477 C 19.016 53.874,20.255 53.809,21.169 54.333 C 21.489 54.517,22.125 54.855,22.583 55.085 C 23.042 55.314,24.129 55.908,25.000 56.403 C 25.871 56.898,27.296 57.666,28.167 58.110 C 29.037 58.554,29.787 58.961,29.833 59.016 C 29.879 59.070,30.517 59.439,31.250 59.835 C 31.983 60.231,33.108 60.844,33.750 61.197 C 35.194 61.991,37.213 63.087,38.468 63.757 C 38.990 64.036,39.864 64.521,40.410 64.834 C 40.957 65.148,41.832 65.633,42.355 65.911 C 45.873 67.783,46.661 68.208,47.289 68.577 C 47.677 68.806,48.615 69.322,49.372 69.726 C 50.130 70.129,51.387 70.816,52.167 71.252 C 52.946 71.688,54.284 72.410,55.141 72.856 C 55.997 73.302,56.897 73.806,57.141 73.976 C 59.011 75.286,61.066 74.992,61.832 73.305 C 62.336 72.193,62.328 66.059,61.819 64.628 C 60.825 61.826,59.705 60.575,56.750 58.966 C 55.558 58.316,53.796 57.356,52.833 56.830 C 51.871 56.305,50.483 55.557,49.750 55.169 C 49.017 54.780,48.342 54.403,48.250 54.332 C 48.104 54.218,46.080 53.130,41.667 50.795 C 40.979 50.431,40.235 50.018,40.014 49.878 C 39.792 49.737,39.129 49.367,38.540 49.054 C 37.040 48.259,33.398 46.290,32.500 45.790 C 32.087 45.560,31.262 45.109,30.667 44.787 C 30.071 44.466,28.796 43.772,27.833 43.246 C 26.871 42.719,25.483 41.976,24.750 41.594 C 24.017 41.212,23.229 40.781,23.000 40.636 C 22.771 40.492,21.908 40.018,21.083 39.584 C 17.763 37.835,16.742 37.285,16.583 37.160 C 16.301 36.938,13.133 35.221,8.935 33.016 C 7.826 32.433,6.583 32.332,5.794 32.761 M8.300 32.967 C 8.639 33.132,9.479 33.574,10.167 33.948 C 11.273 34.550,13.979 36.015,16.417 37.331 C 16.875 37.579,18.675 38.553,20.417 39.497 C 22.158 40.441,24.033 41.456,24.583 41.753 C 25.133 42.050,26.446 42.764,27.500 43.340 C 28.554 43.916,29.792 44.588,30.250 44.835 C 31.103 45.293,32.035 45.799,35.250 47.550 C 36.258 48.099,37.533 48.791,38.083 49.088 C 38.633 49.384,40.433 50.360,42.083 51.256 C 47.473 54.183,48.398 54.684,49.833 55.451 C 50.612 55.867,51.475 56.341,51.750 56.505 C 52.454 56.923,56.232 58.948,57.349 59.507 C 60.654 61.157,62.000 64.009,62.000 69.358 C 62.000 73.053,61.545 74.244,60.005 74.582 C 59.180 74.763,57.191 73.835,51.386 70.559 C 51.002 70.343,50.215 69.913,49.636 69.604 C 49.057 69.295,47.533 68.462,46.250 67.753 C 44.967 67.043,42.904 65.919,41.667 65.255 C 40.429 64.590,39.117 63.875,38.750 63.665 C 38.383 63.456,37.183 62.797,36.083 62.200 C 34.983 61.604,33.783 60.952,33.417 60.751 C 33.050 60.550,30.725 59.277,28.250 57.922 C 25.775 56.566,23.262 55.195,22.667 54.874 C 22.071 54.553,21.321 54.145,21.000 53.967 C 19.695 53.243,18.173 53.896,17.587 55.431 C 17.046 56.848,17.293 61.711,18.001 63.573 C 18.709 65.435,20.332 67.196,22.250 68.184 C 22.892 68.515,24.504 69.383,25.833 70.114 C 27.162 70.845,28.813 71.751,29.500 72.127 C 30.188 72.503,31.238 73.078,31.833 73.406 C 32.429 73.734,33.988 74.583,35.297 75.293 C 36.607 76.003,37.882 76.697,38.131 76.835 C 38.380 76.974,39.183 77.417,39.917 77.820 C 40.650 78.224,41.481 78.683,41.763 78.841 C 42.045 78.999,42.982 79.505,43.846 79.964 C 44.710 80.424,45.893 81.070,46.474 81.400 C 47.056 81.730,47.567 82.000,47.609 82.000 C 48.053 82.000,49.951 84.111,50.551 85.272 C 51.508 87.123,51.964 93.562,51.255 95.188 C 50.474 96.976,49.075 97.205,46.833 95.911 C 46.329 95.620,45.392 95.097,44.750 94.748 C 44.108 94.400,42.440 93.489,41.042 92.724 C 34.657 89.231,33.310 88.499,31.750 87.675 C 30.833 87.191,29.896 86.663,29.667 86.502 C 29.438 86.341,28.950 86.062,28.583 85.883 C 28.217 85.703,27.579 85.368,27.167 85.139 C 20.326 81.337,20.015 81.211,18.775 81.729 C 16.799 82.555,16.779 88.212,18.742 91.321 C 19.778 92.961,21.095 93.890,26.164 96.555 C 26.853 96.917,28.317 97.716,29.417 98.330 C 30.517 98.944,31.642 99.562,31.917 99.704 C 32.192 99.846,33.092 100.331,33.917 100.783 C 34.742 101.234,36.504 102.190,37.833 102.907 C 39.162 103.624,40.662 104.452,41.167 104.748 C 41.671 105.044,42.983 105.758,44.083 106.335 C 45.183 106.912,46.271 107.511,46.500 107.666 C 46.729 107.821,47.142 108.059,47.417 108.196 C 48.307 108.639,52.719 111.021,53.833 111.660 C 54.429 112.002,55.554 112.620,56.333 113.034 C 58.496 114.182,58.796 114.392,59.655 115.356 C 62.271 118.294,63.072 126.192,60.948 128.111 C 59.808 129.141,59.267 128.972,53.500 125.789 C 52.171 125.055,50.333 124.042,49.417 123.537 C 48.500 123.033,47.357 122.368,46.878 122.060 C 46.398 121.752,45.918 121.500,45.811 121.500 C 45.704 121.500,45.031 121.162,44.316 120.750 C 43.601 120.337,42.984 120.000,42.945 120.000 C 42.906 120.000,42.059 119.541,41.062 118.980 C 40.065 118.419,38.350 117.473,37.250 116.878 C 34.432 115.353,33.373 114.775,32.417 114.241 C 31.958 113.984,30.833 113.369,29.917 112.872 C 29.000 112.376,27.800 111.726,27.250 111.428 C 26.700 111.130,25.238 110.339,24.000 109.670 C 22.762 109.000,21.600 108.358,21.417 108.243 C 21.233 108.127,20.146 107.526,19.000 106.906 C 17.854 106.286,16.542 105.576,16.083 105.327 C 9.350 101.675,9.305 101.650,8.583 101.205 C 7.110 100.295,5.880 98.684,5.191 96.761 L 4.769 95.583 4.716 66.000 C 4.687 49.729,4.710 35.950,4.767 35.379 C 4.992 33.137,6.514 32.098,8.300 32.967 M118.940 36.605 C 118.095 36.910,117.700 37.095,109.750 40.917 C 108.742 41.401,107.017 42.229,105.917 42.755 C 104.817 43.282,102.904 44.197,101.667 44.790 C 100.429 45.382,98.629 46.242,97.667 46.702 C 96.704 47.161,95.242 47.861,94.417 48.257 C 93.592 48.654,92.504 49.169,92.000 49.402 C 91.496 49.635,90.971 49.893,90.833 49.977 C 90.696 50.060,90.396 50.202,90.167 50.293 C 89.670 50.489,87.963 51.298,83.957 53.235 C 82.329 54.022,80.964 54.667,80.923 54.667 C 80.882 54.667,79.477 55.332,77.799 56.144 C 73.401 58.276,71.261 59.296,70.242 59.747 C 68.643 60.453,66.857 62.507,66.231 64.357 L 65.833 65.532 65.833 83.002 C 65.833 103.094,65.718 101.598,67.331 102.416 C 68.572 103.044,69.190 102.888,73.239 100.925 C 78.661 98.296,79.983 97.667,80.087 97.667 C 80.148 97.667,80.398 97.531,80.641 97.364 C 80.884 97.198,81.672 96.819,82.392 96.522 C 83.112 96.225,83.992 95.799,84.347 95.574 C 84.703 95.350,85.046 95.167,85.111 95.167 C 85.284 95.167,87.265 94.226,94.376 90.768 C 96.187 89.887,97.706 89.167,97.752 89.167 C 97.798 89.167,99.092 88.557,100.626 87.812 C 103.023 86.649,105.167 85.625,107.482 84.538 C 109.824 83.439,111.167 84.829,111.167 88.354 C 111.167 92.150,109.664 95.026,107.083 96.168 C 105.820 96.727,102.809 98.142,102.292 98.420 C 101.242 98.984,100.860 99.173,99.750 99.680 C 99.108 99.972,97.121 100.920,95.333 101.786 C 93.546 102.652,91.933 103.425,91.750 103.504 C 91.381 103.664,86.526 105.988,83.417 107.493 C 82.317 108.025,80.704 108.800,79.833 109.215 C 68.046 114.824,68.498 114.559,67.152 116.621 C 65.951 118.461,65.833 119.043,65.834 123.109 C 65.835 127.108,65.924 127.575,66.837 128.400 C 67.740 129.216,69.043 129.256,70.477 128.512 C 70.994 128.244,72.392 127.563,73.583 126.999 C 76.194 125.764,77.186 125.289,81.083 123.409 C 84.370 121.822,86.091 120.998,89.000 119.618 C 91.594 118.387,94.834 116.836,97.250 115.670 C 100.339 114.179,103.238 112.789,105.250 111.834 C 106.258 111.355,108.246 110.401,109.667 109.713 C 111.087 109.025,113.037 108.087,114.000 107.628 C 118.986 105.250,119.476 104.970,120.479 103.925 C 122.446 101.877,122.949 100.041,122.811 95.417 C 122.802 95.142,122.793 91.842,122.790 88.083 C 122.788 84.325,122.758 78.700,122.725 75.583 C 122.692 72.439,122.732 69.722,122.816 69.480 C 123.022 68.886,122.731 66.406,122.369 65.671 C 121.363 63.626,119.960 63.794,114.083 66.660 C 112.617 67.376,111.042 68.129,110.583 68.334 C 109.572 68.787,107.051 69.983,103.917 71.497 C 102.633 72.117,101.058 72.868,100.417 73.167 C 99.775 73.466,98.253 74.188,97.033 74.772 C 95.814 75.356,94.789 75.833,94.755 75.833 C 94.721 75.833,93.581 76.365,92.222 77.014 C 90.862 77.664,89.412 78.348,89.000 78.535 C 88.587 78.722,87.033 79.465,85.547 80.187 C 84.060 80.909,82.810 81.500,82.770 81.500 C 82.729 81.500,82.136 81.763,81.451 82.083 C 79.725 82.892,79.176 82.842,78.119 81.785 C 77.519 81.186,77.208 76.896,77.585 74.417 C 77.892 72.393,79.823 69.914,81.826 68.971 C 82.426 68.688,83.742 68.064,84.750 67.583 C 85.758 67.102,87.258 66.391,88.083 66.002 C 90.036 65.081,92.870 63.725,95.620 62.397 C 96.832 61.812,97.865 61.333,97.915 61.333 C 97.966 61.333,99.465 60.621,101.246 59.750 C 103.027 58.879,104.539 58.167,104.607 58.167 C 104.725 58.167,105.260 57.914,110.083 55.575 C 113.214 54.057,117.201 52.187,117.750 51.979 C 121.413 50.594,122.914 47.549,122.808 41.723 L 122.750 38.556 122.244 37.737 C 121.449 36.450,120.381 36.084,118.940 36.605 M121.477 37.119 C 122.450 37.831,122.516 38.194,122.464 42.583 L 122.417 46.583 121.842 47.750 C 120.630 50.207,120.143 50.556,113.560 53.675 C 110.831 54.968,107.845 56.384,106.924 56.821 C 106.004 57.259,104.725 57.864,104.083 58.166 C 103.442 58.467,102.129 59.087,101.167 59.544 C 100.204 60.000,98.142 60.974,96.583 61.709 C 95.025 62.444,92.452 63.673,90.865 64.440 C 89.279 65.206,87.956 65.833,87.925 65.833 C 87.895 65.833,86.755 66.365,85.393 67.015 C 84.031 67.666,82.371 68.457,81.703 68.774 C 79.539 69.802,77.982 71.792,77.405 74.267 C 76.848 76.654,77.194 81.213,77.992 82.006 C 79.306 83.310,79.796 83.218,85.083 80.666 C 86.367 80.047,88.729 78.922,90.333 78.166 C 91.938 77.410,93.962 76.454,94.833 76.041 C 100.173 73.508,103.440 71.962,106.083 70.716 C 107.733 69.938,109.721 68.998,110.500 68.626 C 115.015 66.472,116.381 65.833,116.476 65.833 C 116.535 65.833,117.278 65.533,118.128 65.166 C 120.332 64.215,121.385 64.372,122.204 65.774 C 122.625 66.495,122.695 99.430,122.278 100.597 C 121.700 102.212,120.355 104.018,119.083 104.888 C 118.900 105.014,116.950 105.963,114.750 106.998 C 112.550 108.033,110.675 108.934,110.583 109.000 C 110.434 109.107,106.797 110.850,102.750 112.753 C 101.925 113.142,99.825 114.152,98.083 115.000 C 96.342 115.848,94.317 116.821,93.583 117.164 C 92.850 117.506,91.237 118.275,90.000 118.872 C 88.763 119.469,87.150 120.239,86.417 120.583 C 85.683 120.927,83.508 121.975,81.583 122.912 C 79.658 123.850,77.863 124.670,77.593 124.736 C 77.324 124.802,76.912 124.990,76.677 125.155 C 76.294 125.424,74.880 126.127,70.750 128.102 C 67.201 129.798,66.114 128.766,66.029 123.619 C 65.955 119.092,66.336 117.686,68.205 115.589 C 69.127 114.555,69.116 114.560,79.667 109.543 C 80.537 109.129,82.337 108.265,83.667 107.622 C 87.018 106.003,90.058 104.552,91.286 103.986 C 91.856 103.724,93.506 102.937,94.953 102.237 C 96.400 101.538,98.371 100.592,99.333 100.135 C 100.296 99.679,101.421 99.130,101.833 98.915 C 102.246 98.701,103.821 97.954,105.333 97.256 C 110.059 95.074,111.333 93.206,111.333 88.465 C 111.333 83.863,109.962 83.030,105.750 85.074 C 101.265 87.249,98.985 88.344,97.978 88.806 C 97.394 89.073,95.829 89.818,94.500 90.460 C 93.171 91.102,91.258 92.022,90.250 92.503 C 89.242 92.984,87.044 94.043,85.365 94.856 C 83.687 95.668,82.290 96.333,82.261 96.333 C 82.231 96.333,80.829 96.998,79.145 97.811 C 77.461 98.623,75.371 99.625,74.500 100.038 C 73.629 100.451,72.170 101.150,71.257 101.592 C 68.522 102.915,67.145 102.772,66.350 101.082 C 65.815 99.944,65.797 66.524,66.331 64.797 C 67.015 62.582,68.633 60.734,70.750 59.751 C 74.514 58.002,77.241 56.714,79.583 55.577 C 83.665 53.596,87.004 52.000,87.067 52.000 C 87.106 52.000,88.611 51.288,90.412 50.417 C 92.213 49.546,93.714 48.833,93.747 48.833 C 93.780 48.833,95.032 48.242,96.529 47.519 C 102.518 44.628,104.442 43.706,109.000 41.546 C 111.612 40.308,114.688 38.842,115.833 38.289 C 119.422 36.557,120.427 36.349,121.477 37.119 " stroke="none" fill="#b5b5b5" fill-rule="evenodd"></path><path id="path4" d="M214.336 14.631 C 213.938 14.953,212.833 17.620,212.833 18.258 C 212.833 18.622,213.874 21.206,214.172 21.583 C 215.248 22.944,216.296 27.446,218.327 39.424 C 219.660 47.285,221.590 50.014,226.833 51.453 C 228.492 51.908,276.116 51.913,277.886 51.458 C 280.068 50.898,282.121 49.644,283.308 48.148 L 283.700 47.655 284.410 48.070 C 286.008 49.007,289.955 50.195,291.583 50.229 C 295.066 50.302,296.728 46.019,294.684 42.237 C 292.840 38.825,288.085 38.534,285.257 41.659 C 285.081 41.853,284.633 42.149,284.260 42.317 C 283.888 42.485,282.920 43.232,282.110 43.976 C 280.097 45.827,279.122 46.277,276.649 46.496 C 274.171 46.715,229.865 46.727,228.713 46.509 C 226.994 46.183,224.990 44.637,224.175 43.009 C 223.460 41.578,223.368 41.166,222.914 37.333 C 221.143 22.397,217.301 12.230,214.336 14.631 M317.599 23.885 C 317.409 24.024,317.157 24.714,316.901 25.797 L 316.502 27.492 316.847 28.371 C 317.036 28.854,317.803 30.412,318.550 31.833 C 320.448 35.444,321.831 38.294,322.080 39.110 L 322.291 39.803 321.437 40.626 C 319.828 42.177,316.847 44.114,314.484 45.143 C 314.080 45.319,313.188 45.723,312.500 46.041 C 308.749 47.776,303.266 49.004,301.088 48.595 C 298.729 48.153,299.357 45.700,303.142 40.579 C 304.445 38.817,304.623 38.086,303.913 37.428 C 303.075 36.651,302.106 37.024,300.554 38.722 C 295.305 44.466,294.562 50.966,298.890 53.279 L 300.083 53.917 302.500 53.916 C 308.166 53.914,318.222 49.764,322.881 45.504 C 323.411 45.019,323.871 44.651,323.903 44.686 C 323.935 44.721,324.240 45.308,324.582 45.990 C 325.363 47.551,326.314 48.844,327.123 49.447 C 327.468 49.704,327.787 49.954,327.833 50.003 C 328.048 50.229,328.833 50.637,329.667 50.955 C 333.226 52.311,338.018 51.881,350.417 49.096 C 359.025 47.163,362.719 46.709,366.064 47.175 C 367.759 47.410,368.086 47.233,368.894 45.635 C 369.725 43.993,369.816 43.359,369.306 42.766 L 368.912 42.308 363.498 41.824 C 354.892 41.054,355.254 41.107,348.583 39.643 C 342.583 38.327,342.054 38.300,338.599 39.127 C 336.529 39.623,336.043 39.972,335.274 41.514 C 334.206 43.657,334.642 44.106,338.016 44.334 C 339.336 44.423,341.111 44.546,341.960 44.606 C 343.305 44.702,343.545 44.678,343.832 44.418 C 344.144 44.136,344.221 44.135,345.289 44.394 C 345.909 44.544,346.560 44.667,346.736 44.667 C 348.155 44.665,341.680 45.865,337.721 46.338 C 331.175 47.120,329.207 45.849,327.259 39.583 C 325.520 33.992,324.442 31.537,321.724 26.976 C 319.934 23.972,318.721 23.064,317.599 23.885 M342.244 28.825 C 341.763 29.020,341.622 29.244,341.008 30.791 C 340.137 32.988,340.444 33.655,342.667 34.389 C 346.282 35.583,347.061 35.327,347.735 32.726 C 348.329 30.432,348.309 30.406,345.227 29.412 C 342.759 28.616,342.760 28.616,342.244 28.825 M190.617 31.283 C 190.358 31.350,188.936 33.107,188.793 33.536 C 188.766 33.619,188.520 33.570,188.247 33.428 C 187.973 33.285,187.685 33.168,187.606 33.168 C 187.527 33.167,186.725 32.820,185.824 32.396 C 183.742 31.417,183.631 31.441,182.529 33.137 C 180.762 35.857,181.026 36.438,184.660 37.815 C 187.476 38.882,188.695 38.643,189.442 36.875 C 189.568 36.577,189.693 36.333,189.720 36.333 C 189.747 36.333,190.694 36.675,191.825 37.094 C 194.507 38.085,195.059 37.863,196.247 35.311 C 197.108 33.461,196.711 32.972,193.501 31.923 C 192.228 31.507,191.126 31.175,191.052 31.186 C 190.978 31.197,190.782 31.240,190.617 31.283 M208.635 35.375 C 208.278 35.659,207.339 38.562,207.452 39.035 C 207.501 39.245,208.188 40.032,208.978 40.785 C 209.877 41.643,210.352 42.209,210.248 42.302 C 209.704 42.791,203.920 44.350,199.333 45.243 C 197.637 45.574,195.725 45.953,195.083 46.087 C 186.580 47.853,177.100 47.852,173.235 46.083 C 170.253 44.720,169.897 43.869,170.755 40.146 C 171.792 35.642,168.495 36.598,166.793 41.295 C 165.961 43.591,166.301 46.463,167.608 48.178 C 171.466 53.245,180.720 53.941,198.500 50.504 C 204.244 49.394,210.649 47.129,212.482 45.560 C 214.174 44.112,214.688 41.117,213.617 38.954 C 212.366 36.431,209.708 34.521,208.635 35.375 M233.417 52.527 C 233.233 52.636,232.977 52.880,232.848 53.070 C 232.230 53.979,228.981 56.865,227.000 58.263 C 226.496 58.620,225.998 58.992,225.895 59.090 C 225.791 59.189,224.066 60.373,222.061 61.720 C 215.955 65.825,215.695 66.024,215.082 67.070 C 214.476 68.104,213.660 71.449,213.553 73.333 C 213.451 75.144,213.628 76.024,214.894 80.000 C 215.805 82.862,215.825 83.141,215.172 83.886 C 212.952 86.414,207.833 86.119,207.833 83.463 C 207.833 81.872,206.876 81.604,204.950 82.656 C 204.290 83.017,202.813 83.731,201.667 84.243 C 198.552 85.634,198.062 85.928,196.481 87.357 C 196.095 87.706,194.607 89.651,193.233 91.603 C 190.139 95.999,186.168 99.164,180.793 101.516 C 180.128 101.807,179.171 102.234,178.667 102.463 C 178.163 102.693,177.087 103.128,176.276 103.429 C 174.589 104.056,174.167 104.370,174.167 104.994 C 174.167 106.410,174.578 106.406,182.417 104.898 C 188.728 103.685,192.208 101.296,195.500 95.916 C 197.772 92.204,199.600 90.506,202.881 89.057 C 203.817 88.644,204.650 88.241,204.732 88.163 C 204.816 88.082,205.213 88.298,205.648 88.663 C 207.847 90.503,210.419 91.084,213.167 90.363 C 215.566 89.733,218.073 87.733,218.415 86.175 L 218.519 85.702 219.461 86.270 C 225.100 89.665,231.296 85.163,231.787 77.313 C 231.946 74.772,229.779 69.404,227.122 65.758 C 226.735 65.228,225.718 65.317,225.213 65.925 C 222.580 69.096,222.082 70.340,222.647 72.341 C 223.122 74.020,224.901 74.700,225.403 73.394 C 225.659 72.725,227.833 77.483,227.833 78.714 C 227.833 81.930,222.295 83.335,220.316 80.620 C 219.087 78.934,217.167 73.468,217.167 71.655 C 217.167 70.826,218.063 70.040,222.449 67.023 C 225.926 64.632,225.948 64.617,228.583 62.535 C 232.974 59.068,235.167 56.061,235.167 53.505 C 235.167 52.631,234.176 52.078,233.417 52.527 M388.038 63.805 C 385.371 64.755,383.606 67.612,383.594 71.000 C 383.584 73.620,384.151 75.048,386.333 77.903 C 387.748 79.755,388.078 80.440,387.776 80.901 C 387.409 81.461,385.242 82.838,383.039 83.911 L 381.162 84.826 381.281 84.371 C 382.531 79.589,374.141 78.286,369.553 82.550 L 369.023 83.043 368.918 82.396 C 368.103 77.374,365.919 74.536,362.955 74.649 C 361.527 74.704,359.667 77.991,359.667 80.459 C 359.667 82.358,361.890 82.579,362.357 80.727 C 362.662 79.513,363.325 80.146,364.160 82.448 C 365.266 85.499,365.434 87.310,364.734 88.667 C 364.569 88.987,364.434 89.494,364.433 89.792 L 364.433 90.333 363.444 90.333 C 360.580 90.333,359.754 89.343,357.891 83.678 C 356.360 79.022,354.149 74.694,353.276 74.647 C 352.638 74.613,352.254 74.689,352.059 74.889 C 351.621 75.334,350.197 78.384,350.304 78.644 C 350.464 79.032,351.628 81.110,352.193 82.018 C 352.456 82.440,352.972 83.490,353.340 84.351 C 353.708 85.212,354.078 86.067,354.162 86.250 C 354.247 86.433,354.620 87.513,354.993 88.648 C 357.652 96.751,363.771 97.746,375.955 92.059 C 376.617 91.749,377.967 91.204,378.955 90.847 C 388.639 87.348,390.654 85.675,391.557 80.392 C 391.974 77.952,391.587 76.820,389.227 73.583 C 386.624 70.012,386.476 67.997,388.816 68.002 C 391.405 68.007,393.837 70.812,394.737 74.833 C 395.448 78.004,395.584 80.384,395.240 83.584 C 395.145 84.466,395.174 84.621,395.482 84.901 C 397.191 86.447,399.406 82.674,399.385 78.250 C 399.340 68.537,393.965 61.693,388.038 63.805 M343.914 69.461 C 343.722 69.601,342.486 71.082,341.896 71.882 C 340.553 73.700,340.422 75.977,341.575 77.423 C 342.094 78.074,343.043 78.094,343.582 77.467 L 343.955 77.034 344.880 78.975 C 346.760 82.923,346.610 83.599,343.513 85.133 C 340.968 86.394,337.500 85.602,337.500 83.761 C 337.500 82.046,336.054 81.842,334.578 83.349 C 331.891 86.094,324.707 90.643,318.833 93.318 C 305.928 99.197,291.413 99.753,284.465 94.635 C 279.411 90.913,281.626 85.526,289.990 81.199 C 292.440 79.931,292.667 79.760,292.667 79.178 C 292.667 77.540,290.706 77.604,287.353 79.351 C 279.978 83.193,276.760 88.244,278.170 93.765 C 280.916 104.522,302.082 107.063,319.917 98.777 C 323.452 97.135,327.241 94.981,330.261 92.896 C 330.909 92.449,332.006 91.694,332.699 91.217 C 333.391 90.741,334.061 90.254,334.187 90.134 C 334.313 90.015,334.701 89.704,335.049 89.444 L 335.682 88.971 336.829 89.664 C 343.979 93.984,352.439 85.828,349.532 77.417 C 348.847 75.436,345.851 69.826,345.285 69.467 C 345.029 69.304,344.136 69.300,343.914 69.461 M259.642 72.614 C 259.348 72.689,257.031 75.479,256.466 76.437 C 255.487 78.096,256.256 81.607,257.665 81.916 C 258.620 82.126,259.499 81.273,259.243 80.384 C 259.196 80.219,259.574 80.908,260.084 81.917 C 262.625 86.945,262.268 88.498,258.047 90.769 C 255.797 91.980,256.087 93.869,258.442 93.342 C 266.693 91.496,268.320 85.329,262.909 76.417 C 262.575 75.867,262.054 74.929,261.752 74.333 C 261.020 72.888,260.432 72.409,259.642 72.614 M248.157 73.490 C 247.813 73.852,247.318 74.433,247.057 74.782 C 246.797 75.131,246.452 75.562,246.291 75.740 C 244.309 77.936,245.399 82.855,247.737 82.268 C 248.288 82.130,248.724 81.252,248.474 80.785 C 248.385 80.618,248.335 80.412,248.364 80.327 C 248.455 80.061,250.444 83.897,250.899 85.215 C 251.844 87.953,251.196 89.295,248.488 90.204 L 247.726 90.460 247.946 89.293 C 248.423 86.771,247.269 83.677,244.291 79.500 C 242.804 77.413,242.220 77.613,239.685 81.083 C 236.359 85.636,236.169 89.990,239.168 92.935 C 239.615 93.373,239.944 93.789,239.900 93.860 C 239.649 94.267,234.936 96.446,231.500 97.744 C 229.859 98.363,229.478 98.808,229.839 99.681 C 230.109 100.332,230.574 100.425,232.405 100.193 C 233.236 100.087,234.779 99.922,235.833 99.826 C 236.887 99.730,238.223 99.543,238.802 99.409 C 240.143 99.100,240.208 99.105,239.503 99.459 C 237.990 100.219,237.392 102.626,238.488 103.548 C 238.865 103.865,238.923 104.026,238.868 104.607 C 238.754 105.794,240.033 106.253,241.153 105.427 C 241.455 105.204,242.576 104.740,243.643 104.396 C 246.507 103.473,247.941 101.954,247.021 100.818 C 246.672 100.387,245.684 100.307,245.241 100.674 C 244.948 100.917,244.928 100.901,244.721 100.260 C 244.417 99.321,243.851 99.083,241.914 99.083 L 240.187 99.083 241.326 98.542 C 242.043 98.202,242.920 97.577,243.691 96.858 L 244.917 95.715 246.500 95.623 C 251.405 95.338,253.989 92.947,254.989 87.769 C 255.778 83.677,255.436 82.505,251.333 75.253 C 249.916 72.748,249.227 72.365,248.157 73.490 M203.018 74.792 C 202.682 75.135,202.293 75.596,202.154 75.816 C 201.849 76.294,201.252 76.163,199.936 75.329 C 198.508 74.423,197.939 74.652,196.606 76.664 C 195.635 78.130,195.949 78.891,197.904 79.815 C 200.496 81.040,201.544 81.004,202.466 79.659 C 202.744 79.252,203.012 79.030,203.167 79.077 C 203.304 79.120,203.942 79.343,204.583 79.573 C 206.262 80.175,206.752 80.140,207.489 79.365 C 209.128 77.642,209.344 76.132,207.999 75.789 C 207.228 75.592,205.070 74.581,204.927 74.350 C 204.658 73.915,203.643 74.150,203.018 74.792 M163.462 74.542 C 162.724 75.114,161.500 77.070,161.500 77.678 C 161.500 79.035,165.939 80.957,167.165 80.131 C 169.227 78.742,169.753 76.421,168.106 75.988 C 167.727 75.888,166.789 75.475,166.023 75.070 C 164.591 74.313,163.932 74.177,163.462 74.542 M138.135 75.708 C 137.829 76.006,137.392 76.496,137.165 76.797 L 136.750 77.344 135.223 76.562 C 133.312 75.584,133.056 75.646,131.829 77.388 C 130.633 79.085,130.708 79.597,132.291 80.556 C 135.089 82.252,136.717 82.168,137.777 80.274 C 137.915 80.027,138.013 80.036,138.856 80.368 L 139.784 80.733 139.270 80.991 C 138.642 81.308,138.115 82.069,137.811 83.098 C 137.562 83.945,137.793 83.795,134.313 85.380 C 130.894 86.937,128.834 89.819,128.833 93.047 C 128.832 96.802,137.359 96.587,140.000 92.766 C 140.787 91.627,140.988 91.501,141.341 91.926 C 144.891 96.204,152.927 95.604,156.177 90.818 C 157.023 89.573,157.034 89.568,158.052 90.008 C 162.111 91.763,166.483 90.435,167.957 87.000 C 168.310 86.176,168.563 82.781,168.325 82.059 C 167.776 80.394,165.756 81.049,165.345 83.026 C 164.813 85.591,161.835 86.487,158.954 84.948 C 156.982 83.894,156.173 84.011,154.970 85.524 C 149.559 92.326,142.379 90.593,141.073 82.170 C 141.010 81.759,140.836 81.331,140.687 81.219 C 140.464 81.051,140.528 81.033,141.050 81.114 C 141.642 81.207,141.734 81.160,142.467 80.395 C 144.294 78.485,144.381 77.231,142.719 76.748 C 141.602 76.424,140.083 75.717,139.820 75.400 C 139.478 74.989,138.733 75.125,138.135 75.708 M175.640 81.662 C 173.529 82.300,171.707 86.935,172.880 88.684 C 173.787 90.037,176.745 90.744,178.464 90.019 C 179.353 89.644,179.264 89.913,178.141 90.992 C 176.337 92.725,171.799 95.193,168.000 96.507 C 167.129 96.808,166.345 97.117,166.258 97.194 C 165.955 97.461,165.708 97.330,165.612 96.850 C 165.526 96.424,165.382 96.324,164.383 96.002 C 163.760 95.802,162.828 95.382,162.312 95.069 C 160.830 94.171,159.995 94.411,159.052 96.008 C 158.892 96.279,158.669 96.500,158.555 96.500 C 158.283 96.500,156.183 95.495,156.069 95.310 C 155.845 94.948,154.891 95.175,154.390 95.708 C 151.993 98.262,152.309 99.288,155.921 100.679 C 157.875 101.431,158.495 101.262,159.503 99.702 L 159.750 99.320 160.827 99.759 C 162.624 100.491,163.491 100.498,164.203 99.786 C 164.733 99.256,164.818 99.222,165.048 99.453 C 165.290 99.695,166.654 99.797,166.976 99.598 C 167.048 99.554,167.926 99.438,168.928 99.341 C 178.813 98.381,182.667 95.425,182.667 88.801 C 182.667 84.086,179.218 80.582,175.640 81.662 M242.435 85.796 C 243.621 87.820,244.477 90.500,243.938 90.500 C 241.627 90.500,239.942 87.437,240.971 85.109 C 241.422 84.091,241.442 84.101,242.435 85.796 M377.392 84.978 C 378.282 85.329,373.219 88.208,369.844 89.270 C 368.321 89.749,368.307 89.737,369.166 88.638 C 371.481 85.677,375.088 84.072,377.392 84.978 M138.996 88.995 L 139.348 89.489 138.716 89.756 C 137.868 90.113,135.650 90.623,134.417 90.744 L 133.417 90.842 134.500 90.303 C 135.723 89.695,138.357 88.522,138.530 88.509 C 138.593 88.504,138.802 88.723,138.996 88.995 M323.105 100.846 C 322.523 101.304,321.184 103.193,321.008 103.804 C 320.719 104.813,321.932 105.958,324.167 106.787 C 326.332 107.590,327.000 107.440,328.174 105.887 C 329.861 103.654,329.832 103.141,327.975 102.429 C 327.301 102.171,326.123 101.631,325.356 101.230 C 323.755 100.391,323.696 100.381,323.105 100.846 " stroke="none" fill="#04145c" fill-rule="evenodd"></path></g></svg>